<svg xmlns="http://www.w3.org/2000/svg" viewBox="0 0 800 600" role="img" aria-label="Lunettes">
  <rect width="800" height="600" fill="#f3efe8"/>
  <path d="M145 290c35-62 165-62 205 0s-18 120-92 120-148-58-113-120z" fill="#ffffff" stroke="#171717" stroke-width="20"/>
  <path d="M450 290c35-62 165-62 205 0s-18 120-92 120-148-58-113-120z" fill="#ffffff" stroke="#171717" stroke-width="20"/>
  <path d="M350 300c32-30 68-30 100 0" fill="none" stroke="#171717" stroke-width="18" stroke-linecap="round"/>
  <path d="M168 286c70 36 130 36 166 0M472 286c70 36 130 36 166 0" fill="none" stroke="#0f766e" stroke-width="10" opacity=".45"/>
  <text x="400" y="520" text-anchor="middle" font-family="Arial, sans-serif" font-size="38" fill="#3a3128">Lunettes</text>
</svg>
